PathFileType	4	(X/Y/Z)	Patient4_TMGait_0pt7_02_right_28.trc.trc
DataRate	CameraRate	NumFrames	NumMarkers	Units	OrigDataRate	OrigDataStartFrame	OrigNumFrames
85.889570552147	85.889570552147	6	33	mm	85.889570552147	53	       141
Frame#	Time	Sacral			L.Shoulder			Chest			R.Shoulder			Neck			R.ASIS			L.ASIS			R.Thigh.Superior			R.Thigh.Lateral			R.Thigh.Inferior			R.Patella			L.Thigh.Superior			L.Thigh.Lateral			L.Thigh.Inferior			L.Patella			L.Shank.Superior			L.Shank.Lateral			L.Shank.Inferior			R.Shank.Superior			R.Shank.Lateral			R.Shank.Inferior			R.Heel			R.Midfoot.Superior			R.Midfoot.Lateral			R.Toe			L.Heel			L.Midfoot.Lateral			L.Midfoot.Superior			L.Toe			L.Elbow			L.Wrist			R.Elbow			R.Wrist			
		X1	Y1	Z1	X2	Y2	Z2	X3	Y3	Z3	X4	Y4	Z4	X5	Y5	Z5	X6	Y6	Z6	X7	Y7	Z7	X8	Y8	Z8	X9	Y9	Z9	X10	Y10	Z10	X11	Y11	Z11	X12	Y12	Z12	X13	Y13	Z13	X14	Y14	Z14	X15	Y15	Z15	X16	Y16	Z16	X17	Y17	Z17	X18	Y18	Z18	X19	Y19	Z19	X20	Y20	Z20	X21	Y21	Z21	X22	Y22	Z22	X23	Y23	Z23	X24	Y24	Z24	X25	Y25	Z25	X26	Y26	Z26	X27	Y27	Z27	X28	Y28	Z28	X29	Y29	Z29	X30	Y30	Z30	X31	Y31	Z31	X32	Y32	Z32	X33	Y33	Z33	

53	31.965428571429	831.196435250114	1012.962402650044	535.918622933207	1015.956425347903	1424.194497802358	327.065957679779	1132.681622125709	1351.203847730363	478.685838562177	1074.984018282375	1437.221348294141	657.757368487023	1040.351596518846	1490.186894158146	478.846317035606	1063.650768254105	942.458826359997	636.919067662787	1024.579743666151	953.565327911812	363.215549050333	1098.786864575107	740.961459408594	609.238957155187	1016.360616866768	633.805450891116	668.749150441995	1090.820245287692	580.739199372315	586.935665995043	1089.359982510951	491.376403266250	592.322975247082	1121.379131855572	793.829018775680	392.419911620530	1088.901398625151	666.863251313063	309.044615762437	1199.554986375003	611.646681827597	368.678125098955	1220.822400736140	522.687014201446	356.956886170299	1158.273283692838	451.241623098088	349.080759217376	1018.078812258287	399.542827916010	305.345484080179	1019.111370560463	267.873163001089	354.801645874208	1057.905167755282	404.011333211559	598.509743589149	984.028768417020	301.567599986585	658.630751010892	1023.239940158408	206.395422692532	593.057999200938	885.313352699677	44.390123764971	558.225359776714	1056.850362433210	97.615691994550	598.808023781651	967.135923612014	37.164877453547	633.794906585533	1175.698597346093	42.415676536892	627.746634997397	837.405996327011	188.498036884993	398.521719516594	893.489800294536	148.937418307024	314.072309364271	998.572177508172	162.508214996702	330.880105400982	1081.174087334351	56.408233612436	295.057825647766	956.659405285742	1068.970704263573	238.507211243066	1034.368546288372	819.128710574127	238.486598426679	1046.383514737434	1094.614549393388	795.941758706490	1193.089133978384	880.200583298635	767.216357511824	
54	31.977071428571	829.825204657541	1014.222923405490	536.719451016158	1014.981770347122	1424.569883472202	327.136220759976	1132.471349346288	1351.014283767182	477.870291869409	1076.489617515339	1437.217407621271	657.447719746995	1040.578199038067	1490.461119837469	478.847907057273	1062.287121359846	942.606043110961	636.582142137454	1019.715633178116	951.651079443950	362.149233811887	1094.350749089839	740.234167806694	608.709638984404	1010.658661818145	634.143694719691	669.031702366991	1083.635687421391	579.939504202526	586.946964777199	1080.810565841039	491.235052784975	592.336531963355	1120.432175886602	797.498438432837	392.639181729879	1090.960287893106	670.229009132316	308.540641288978	1202.118411630257	616.930003285321	368.636026083554	1225.702120529509	529.024599441724	356.468438655941	1166.273864756657	455.783234051191	348.174796178671	1028.852037983219	397.311848660668	304.254757695008	1036.787857905960	265.441166715333	353.069793153370	1049.653327471982	404.063599016345	598.666135751695	975.792959294955	301.642526645265	658.855355904720	1015.035936889395	206.467552799585	593.202603282451	877.084458114092	44.355880143746	558.283058843858	1048.660813205695	97.591799787428	598.873453199640	958.916858252023	37.141975002020	633.842713512500	1167.460998078321	42.375583091643	627.791460331895	859.532455842879	176.260423275984	396.738321451916	917.422695907459	140.362188772618	311.849225417280	1021.766397702924	159.364007309661	328.515353683147	1109.903762586544	58.069534543643	291.732491842101	949.031792460038	1069.977873445476	240.708548677177	1008.875547152604	815.342785609280	239.151266224654	1057.562549952063	1094.040102857482	795.840851736278	1217.199011370869	890.036480818855	762.916453411656	
55	31.988714285714	828.470808699120	1015.415580810671	537.260813027262	1014.115544618390	1424.898770853682	327.089530740419	1132.294396787176	1350.740447160722	476.966689364225	1077.954672881824	1437.089986911354	657.021621736587	1040.812561530861	1490.642452693373	478.755611125275	1060.856703332206	942.671056705028	636.177437819775	1016.917937098657	951.275650161677	361.577111022869	1089.793951758503	739.437972972166	608.191946382893	1004.718675895690	634.475453818981	669.290850440593	1076.201054020419	579.094427708473	587.010201718099	1072.031197820619	491.137738253566	592.403856193445	1119.196845158819	800.629941597873	392.866446907128	1092.473759955870	673.141119229188	308.058375136436	1203.914798548243	621.543210295427	368.666913589846	1229.663532627811	534.832060294623	356.177879283404	1173.547213781586	459.978116833856	347.404234656675	1039.606223769576	394.651938522143	302.783040662594	1054.486178801910	262.950702975130	351.112605749186	1041.193742744868	404.171461446621	598.840257126809	967.380442662999	301.715282130403	659.067927783172	1006.738418782473	206.567599644257	593.350649272676	868.845732189358	44.305879366786	558.343321749165	1040.459546179149	97.577783876845	598.941665190719	950.683937822892	37.111794527810	633.891072678140	1159.209912507479	42.365894802319	627.831193067724	882.281827734861	163.965927276885	394.074127488356	942.133127561109	131.885345595980	309.051624727995	1045.294615507256	156.377868404482	326.005175561883	1138.904047983930	60.267682891260	288.768660624374	940.954713549654	1071.334272850990	242.390160808035	984.123640545969	813.485273953839	239.903215677890	1068.773664403370	1093.726828757366	795.559071289636	1240.815889874305	901.342411206438	757.879025017840	
56	32.000357142857	827.179819697023	1016.512795811319	537.547746711026	1013.358828573547	1425.176316559918	326.928391260906	1132.151324645335	1350.382733725307	475.981917115559	1079.369941486849	1436.836083534741	656.484954647754	1041.057529972460	1490.725878559156	478.570425285665	1059.398591384028	942.666710405028	635.724360341958	1015.662330515077	951.939387495109	361.333466319281	1085.137865629601	738.570166007861	607.730665378943	998.540042883148	634.799528102938	669.529617820181	1068.544645103372	578.207712092775	587.154078758781	1063.067509022469	491.069296966199	592.545856574270	1117.707093605563	803.173278033204	393.118183703919	1093.426004309266	675.531417021794	307.608227845697	1204.950741888727	625.388869673308	368.752251414565	1232.697359584501	540.004988940025	356.101508585847	1180.045717276298	463.752782040048	346.817226564113	1050.345385965689	391.600922561249	300.899836568138	1072.065825364914	260.476194574277	348.988855510852	1032.536521065634	404.332861363854	599.038486020730	958.792041733459	301.791439472635	659.271226986586	998.350302230740	206.698835504845	593.503816869264	860.598117136289	44.241406078959	558.407382896071	1032.245941408670	97.575062967024	599.013616077575	942.436899970061	37.076561107708	633.938770135095	1150.944154383517	42.390240755441	627.867156303290	905.479773572747	151.807556678222	390.493216925055	967.487781427143	123.680837356776	305.716694290849	1068.980715608108	153.673582701254	323.448569280013	1167.956610034100	63.123869996523	286.402585343918	932.456963225851	1073.064829794229	243.536961578287	960.418237985253	813.322601926648	240.748463677520	1079.956937022216	1093.674992229589	795.070547213051	1263.733978646142	914.132117773893	752.121741869556	
57	32.012000000000	825.994248203810	1017.486601078213	537.585557666809	1012.708479131299	1425.396064588588	326.658108482052	1132.039723375193	1349.941386413416	474.925117289162	1080.722967834022	1436.455857229192	655.845959735220	1041.310161018102	1490.706543849438	478.295754895982	1057.952169757567	942.600024576039	635.236421883532	1015.407040342163	953.128611347425	361.240249648400	1080.408223606354	737.628600270870	607.362761102931	992.136261027809	635.114422889705	669.748961641115	1060.705435618185	577.285698570694	587.397529110077	1053.976636975332	491.009474767181	592.776412232902	1116.008054915217	805.084762936794	393.392067716802	1093.811965711586	677.334566960524	307.186835050949	1205.245996835731	628.376392929558	368.862931945452	1234.807506979423	544.444395178425	356.238494829944	1185.726816879915	467.032657962651	346.442680789722	1061.036041988703	388.193648138014	298.604779441094	1089.364801921101	258.064019373850	346.767121166596	1023.700119760433	404.541308561472	599.264831964050	950.036180625961	301.876067520150	659.466657329326	989.877285908850	206.862326378813	593.663869696106	852.342314348910	44.164186461762	558.473138920416	1024.019052650872	97.584153476317	599.089545124925	934.175972563740	37.038302261403	633.983138893843	1142.663220957831	42.450548611616	627.900998966902	928.915596287580	139.938509218623	386.033623378984	993.294317192634	115.880245737627	301.926872310828	1092.614666290104	151.333342651909	320.946021768998	1196.808756883893	66.700470037885	284.821572183084	923.603923272823	1075.184051217276	244.155782247911	937.983708602990	814.584487437185	241.686543616822	1091.060657160005	1093.878466615853	794.345321970519	1285.743969856036	928.393833974225	745.673149392598	
58	32.023642857143	824.949961510669	1018.307519426834	537.378916757856	1012.156988485301	1425.549281256845	326.285899999651	1131.954043633765	1349.416009929262	473.807275049485	1081.996938650475	1435.951568753715	655.114634293804	1041.560510052710	1490.578992897996	477.937217645251	1056.556418649833	942.470852716940	634.720434335757	1015.688973963598	954.398127901724	361.139054281286	1075.637567053678	736.612076590068	607.110065275407	985.541769410127	635.417651300355	669.947570770300	1052.736415068697	576.336496121899	587.745142263038	1044.828199627940	490.934507309252	593.099029118074	1114.156569691035	806.326275271275	393.668986977565	1093.642572839121	678.490233044661	306.777745618959	1204.834693230385	630.425480347871	368.965683935069	1236.011945629820	548.058409103392	356.571385528903	1190.553264878296	469.743249080502	346.284758910336	1071.593258615054	384.461527779854	295.938072519690	1106.195268660609	255.731005457239	344.522088089434	1014.717153285202	404.785614241089	599.520325262994	941.134365144813	301.972764608931	659.654926353397	981.330088833476	207.055653075999	593.832074172227	844.078744541240	44.076505445173	558.535908295868	1015.777831906992	97.604174035018	599.168849960257	925.901822463960	36.998418616974	634.020722092823	1134.368010961596	42.546270836373	627.934171471791	952.336649666786	128.475875483010	380.822286529153	1019.282470561653	108.570060785142	297.812619090709	1115.941291652593	149.391646610576	318.591193318654	1225.154998961278	70.986150357059	284.134750457949	914.492459068818	1077.690969982552	244.275640649775	916.955787145913	816.989002550817	242.711570819370	1102.042851315118	1094.326194243845	793.351669627768	1306.637021778148	944.087084595088	738.574553402558	
